<svg width="77" height="55" viewBox="0 0 77 55" fill="none" xmlns="http://www.w3.org/2000/svg">
<path fill-rule="evenodd" clip-rule="evenodd" d="M1.04404 52.8851C1.04404 52.8851 1.04397 52.8853 1.1789 52.9508C1.25794 53.0783 1.25803 53.0782 1.25803 53.0782L1.26513 53.0738L1.28686 53.0604L1.37247 53.008C1.44778 52.962 1.55889 52.8946 1.70183 52.8088C1.98772 52.6373 2.4009 52.3926 2.90959 52.1002C3.92713 51.5152 5.32614 50.7396 6.85268 49.9765C8.37976 49.2131 10.0316 48.4638 11.5553 47.9302C13.0846 47.3947 14.4642 47.0842 15.4553 47.1797L15.4841 46.8811C14.4236 46.7789 12.9911 47.1096 11.4562 47.6471C9.91569 48.1865 8.25127 48.942 6.71855 49.7082C5.18528 50.4746 3.78094 51.2532 2.76007 51.8401C2.24956 52.1336 1.83477 52.3792 1.5475 52.5516C1.54092 52.5555 1.53441 52.5594 1.52796 52.5633C1.56802 52.4772 1.61308 52.3798 1.66258 52.2719C1.87936 51.7992 2.18141 51.1248 2.52281 50.3169C3.20533 48.7018 4.0462 46.5509 4.67684 44.4126C5.30592 42.2796 5.73205 40.1392 5.5698 38.5534C5.48856 37.7594 5.25793 37.0841 4.8109 36.6219C4.35888 36.1546 3.70705 35.9268 2.83387 35.9869L2.85446 36.2862C3.66223 36.2306 4.21908 36.4416 4.59526 36.8305C4.97643 37.2246 5.19352 37.8232 5.27135 38.5839C5.42722 40.1074 5.0168 42.1994 4.38909 44.3278C3.76293 46.4509 2.92678 48.5903 2.24647 50.2001C1.90644 51.0048 1.60563 51.6764 1.38989 52.1468C1.28203 52.382 1.19545 52.5668 1.13588 52.6927C1.10609 52.7557 1.08307 52.804 1.06751 52.8364L1.04987 52.8731L1.04404 52.8851ZM1.1789 52.9508L1.25803 53.0782L0.817737 53.3512L1.04404 52.8851L1.1789 52.9508Z" fill="white"/>
<path fill-rule="evenodd" clip-rule="evenodd" d="M37.2326 14.4019C24.7807 22.0928 13.8777 32.5104 7.60184 44.1516L7.86591 44.294C14.1105 32.7106 24.9703 22.3283 37.3903 14.6571C49.8102 6.98592 63.7768 2.03423 76.2249 1.29943L76.2072 0.999956C63.6988 1.73832 49.6845 6.7109 37.2326 14.4019Z" fill="white"/>
<path d="M1.1789 52.9508C1.04397 52.8853 1.04404 52.8851 1.04404 52.8851M1.1789 52.9508C1.25794 53.0783 1.25803 53.0782 1.25803 53.0782M1.1789 52.9508L1.25803 53.0782M1.1789 52.9508L1.04404 52.8851M1.04404 52.8851L0.817737 53.3512L1.25803 53.0782M1.04404 52.8851L1.04987 52.8731L1.06751 52.8364C1.08307 52.804 1.10609 52.7557 1.13588 52.6927C1.19545 52.5668 1.28203 52.382 1.38989 52.1468C1.60563 51.6764 1.90644 51.0048 2.24647 50.2001C2.92678 48.5903 3.76293 46.4509 4.38909 44.3278C5.0168 42.1994 5.42722 40.1074 5.27135 38.5839C5.19353 37.8232 4.97643 37.2246 4.59526 36.8305C4.21908 36.4416 3.66223 36.2306 2.85446 36.2862L2.83387 35.9869C3.70705 35.9268 4.35888 36.1546 4.8109 36.6219C5.25793 37.0841 5.48856 37.7594 5.5698 38.5534C5.73205 40.1392 5.30592 42.2796 4.67684 44.4126C4.0462 46.5509 3.20533 48.7018 2.52281 50.3169C2.18141 51.1248 1.87936 51.7992 1.66258 52.2719C1.61308 52.3798 1.56802 52.4772 1.52796 52.5633C1.5344 52.5594 1.54092 52.5555 1.5475 52.5516C1.83477 52.3792 2.24956 52.1336 2.76007 51.8401C3.78094 51.2532 5.18528 50.4746 6.71855 49.7082C8.25127 48.942 9.91569 48.1865 11.4562 47.6471C12.9911 47.1096 14.4236 46.7789 15.4841 46.8811L15.4553 47.1797C14.4642 47.0842 13.0846 47.3947 11.5553 47.9302C10.0316 48.4638 8.37976 49.2131 6.85268 49.9765C5.32614 50.7396 3.92713 51.5152 2.90959 52.1002C2.4009 52.3926 1.98772 52.6373 1.70183 52.8088C1.55889 52.8946 1.44778 52.962 1.37247 53.008L1.28686 53.0604L1.26513 53.0738L1.25803 53.0782M7.60184 44.1516C13.8777 32.5104 24.7807 22.0928 37.2326 14.4019C49.6845 6.7109 63.6988 1.73832 76.2072 0.999956L76.2249 1.29943C63.7768 2.03423 49.8102 6.98592 37.3903 14.6571C24.9703 22.3283 14.1105 32.7106 7.86591 44.294L7.60184 44.1516Z" stroke="white" stroke-width="0.5"/>
</svg>
