<svg width="68" height="55" viewBox="0 0 68 55" fill="none" xmlns="http://www.w3.org/2000/svg">
<path d="M33.3483 24.9447H28.2087V16.337H34.306C37.621 16.337 39.5023 17.816 39.5023 20.4907C39.5023 23.3467 37.3122 24.9447 33.3427 24.9447H33.3483ZM34.2663 28.3617H28.2115V37.8477H34.5327C38.6665 37.8477 40.8567 36.1902 40.8567 33.0735C40.8567 29.9568 38.6042 28.3617 34.2663 28.3617ZM68 25.3697V28.8207C64.804 29.1267 62.8518 31.4953 61.693 35.2467C60.5398 38.9838 60.3812 43.5682 60.503 47.107C60.6305 50.7903 57.7603 54.1903 53.8815 54.1903H14.1242C10.2425 54.1903 7.37233 50.7903 7.50267 47.107C7.6245 43.5682 7.46583 38.9838 6.31267 35.2467C5.151 31.4953 3.196 29.1267 0 28.8207V25.3697C3.196 25.0637 5.15383 22.695 6.30983 18.9437C7.46583 15.2065 7.6245 10.6222 7.49983 7.08333C7.37233 3.4 10.2425 0 14.1242 0H53.8815C57.7632 0 60.6305 3.4 60.503 7.08333C60.3812 10.6222 60.5398 15.2065 61.693 18.9437C62.8518 22.695 64.804 25.0637 68 25.3697ZM45.5402 33.3512C45.5402 29.5148 42.84 26.741 38.8308 26.3018V26.1403C41.7775 25.6615 44.0895 22.9245 44.0895 19.8702C44.0895 15.5153 40.6527 12.6792 35.4138 12.6792H23.6272V41.4998H35.4733C41.7577 41.4998 45.5402 38.4228 45.5402 33.3512Z" fill="white"/>
</svg>
