<svg width="22" height="22" viewBox="0 0 22 22" fill="none" xmlns="http://www.w3.org/2000/svg">
<path d="M20.4734 0H1.52629C0.684635 0 0 0.6845 0 1.52634V13.4634C0 14.305 0.684635 14.9896 1.52629 14.9896H13.213C13.0317 14.5256 12.92 14.015 12.892 13.4767L1.50428 13.4634L1.52629 1.50423L20.4957 1.52634V13.4634C20.4957 13.4759 20.4854 13.4854 20.4735 13.4854L19.7897 13.4846C19.7611 14.0201 19.6502 14.5277 19.4696 14.9896H20.4735C21.3154 14.9896 22 14.3049 22 13.4633V1.52634C22 0.6845 21.3154 0 20.4734 0Z" fill="#44ADF8"/>
<path d="M16.3412 16.6402C17.8367 16.6402 19.0488 15.1089 19.0488 13.2195C19.0488 11.3304 17.8367 9.79907 16.3412 9.79907C14.8458 9.79907 13.6338 11.3304 13.6338 13.2195C13.6338 15.1089 14.8458 16.6402 16.3412 16.6402Z" fill="#44ADF8"/>
<path d="M3.6358 4.86228H10.3418C10.7576 4.86228 11.0941 4.52604 11.0941 4.11025C11.0941 3.69456 10.7576 3.35809 10.3418 3.35809H3.6358C3.22011 3.35809 2.88382 3.69456 2.88382 4.11025C2.88382 4.52604 3.22006 4.86228 3.6358 4.86228Z" fill="#44ADF8"/>
<path d="M18.6153 7.49502C18.6153 7.07923 18.2788 6.74268 17.8631 6.74268H3.6358C3.22011 6.74268 2.88382 7.07923 2.88382 7.49502C2.88382 7.91071 3.22006 8.24695 3.6358 8.24695H17.8631C18.2788 8.24695 18.6153 7.91076 18.6153 7.49502Z" fill="#44ADF8"/>
<path d="M3.6358 10.1274C3.22011 10.1274 2.88382 10.4638 2.88382 10.8794C2.88382 11.2951 3.22006 11.6316 3.6358 11.6316H10.3418C10.7576 11.6316 11.0941 11.2951 11.0941 10.8794C11.0941 10.4638 10.7576 10.1274 10.3418 10.1274H3.6358Z" fill="#44ADF8"/>
<path d="M18.6269 16.3457C18.624 16.3494 17.5824 17.5505 16.1282 17.3806L17.9365 21.0384C17.9585 21.0838 18.0049 21.1119 18.0548 21.1119C18.0579 21.1119 18.0608 21.1119 18.0644 21.1119C18.1174 21.1076 18.1628 21.0723 18.1797 21.0208L18.6359 19.6203C18.6467 19.5871 18.6712 19.559 18.7026 19.5428C18.7209 19.5341 18.7415 19.5298 18.7606 19.5298C18.7753 19.5298 18.7901 19.532 18.8048 19.537L20.1938 20.0249C20.2083 20.0299 20.223 20.0322 20.2377 20.0322C20.2752 20.0322 20.3105 20.0166 20.3361 19.9881C20.3721 19.9478 20.3794 19.8904 20.3559 19.8427L18.6269 16.3457Z" fill="#44ADF8"/>
<path d="M14.0636 16.3522C14.0614 16.3501 14.0583 16.3479 14.0553 16.3457L12.3263 19.8419C12.3029 19.8904 12.3104 19.9477 12.3464 19.9881C12.372 20.0166 12.408 20.0322 12.4455 20.0322C12.4603 20.0322 12.4747 20.0299 12.4887 20.0249L13.8777 19.537C13.8924 19.532 13.9072 19.5298 13.9218 19.5298C13.9416 19.5298 13.9614 19.5341 13.9798 19.5428C14.0114 19.559 14.0356 19.5871 14.0467 19.6209L14.5029 21.0208C14.5198 21.0716 14.5652 21.1076 14.6182 21.1111C14.6211 21.1111 14.6247 21.1111 14.6276 21.1111C14.6776 21.1111 14.7238 21.0831 14.7461 21.0384L15.9211 18.6616L15.1698 17.1419C15.1669 17.1403 14.512 16.878 14.0636 16.3522Z" fill="#44ADF8"/>
</svg>
