<svg width="57" height="65" viewBox="0 0 57 65" fill="none" xmlns="http://www.w3.org/2000/svg">
<path d="M57 0L51.6554 57.89L28.4996 64.1248L5.34346 57.89L0 0H57ZM46.2304 11.771H28.4788H10.4127L11.2767 18.7618H28.4788H29.4451L28.4788 19.164L11.9054 26.0666L12.4551 32.8999L28.4788 32.9519L37.067 32.9791L36.5173 42.0904L28.4787 44.3536V44.3464L28.4128 44.3647L20.6495 42.405L20.1784 36.7492H20.1527H12.9519H12.9265L13.8691 47.6676L28.4789 51.9881V51.9803L28.5053 51.9881L43.0368 47.7463L44.9218 26.0666H28.4789H28.4384L28.4789 26.0491L45.5241 18.7618L46.2304 11.771Z" fill="white"/>
</svg>
