<svg width="54" height="70" viewBox="0 0 54 70" fill="none" xmlns="http://www.w3.org/2000/svg">
<path d="M35.9015 0H24.5256V17.3429C22.8261 16.9001 21.4233 16.7524 19.576 16.7524C7.6833 16.7524 0 24.2855 0 35.8805C0 47.9194 7.23999 54.1968 21.1281 54.1968C25.7797 54.1968 30.065 53.7538 35.9017 52.6461V0H35.9015ZM24.5256 44.7443C22.9003 44.9653 21.8662 45.0386 20.6106 45.0386C14.7745 45.0386 11.5978 41.716 11.5978 35.6592C11.5978 29.4556 14.9217 25.9105 20.685 25.9105C22.0877 25.9105 23.1952 26.0581 24.5256 26.501V44.7443ZM54 0.0611196V11.7305H42.6236V0.0611196H54ZM42.6236 17.5643H54V43.9314C54 53.0156 53.3344 57.3727 51.34 61.1398C49.4938 64.7593 47.0559 67.048 42.032 69.5593L31.4681 64.5369C36.4906 62.1739 38.9306 60.1071 40.481 56.9299C42.1058 53.6801 42.6236 49.9135 42.6236 40.0162V17.5643Z" fill="white"/>
</svg>
