<svg width="63" height="45" viewBox="0 0 63 45" fill="none" xmlns="http://www.w3.org/2000/svg">
<path d="M26.8391 22.6884C26.8391 30.708 27.4091 37.4466 23.4722 41.4345C21.2578 43.678 17.7638 44.9998 13.4649 44.9998C6.41381 44.9998 2.4988 41.5473 0 36.7699C2.4056 35.226 4.86396 33.7338 7.36954 32.2899C8.39185 35.1632 11.8438 38.3937 15.7393 36.4051C18.2084 35.1436 17.9234 31.3197 17.9234 27.1689C17.9234 18.5508 17.9234 8.60908 17.9234 0.833728C17.9156 0.704362 17.908 0.575119 18.0136 0.559382C20.956 0.559382 23.8979 0.559382 26.8392 0.559382C26.8391 7.48555 26.8391 15.3215 26.8391 22.6884ZM49.2198 17.4767C46.9702 16.5085 44.1739 15.363 43.4884 13.2696C42.7199 10.9234 44.0303 8.99049 45.4895 8.33275C48.6978 6.88445 52.5216 9.26905 53.3137 11.7157C55.728 10.2713 58.1346 8.81813 60.3197 7.1438C57.7521 2.85836 53.9883 -0.209504 47.1275 0.0111872C43.3499 0.132499 40.5122 1.33112 38.3936 3.11994C36.326 4.86527 34.7294 7.31492 34.4808 10.8012C33.738 21.2363 41.5068 23.8999 48.1282 26.8031C50.2155 27.7182 52.5359 28.6423 53.4962 30.4607C55.4763 34.2131 51.9687 36.6886 48.9471 36.9534C44.0974 37.3781 40.8276 34.5263 38.9392 31.5582C36.5803 33.0278 34.0153 34.2899 31.7517 35.8559C34.9001 41.4206 40.0624 45.0231 48.1282 44.9999C56.3564 44.9766 62.4566 40.9893 62.9574 33.4787C63.6383 23.2702 56.0289 20.4064 49.2198 17.4767Z" fill="white"/>
</svg>
