<svg width="17" height="17" viewBox="0 0 17 17" fill="white" xmlns="http://www.w3.org/2000/svg">
<path d="M10.7432 6.25675C10.422 5.93552 9.90113 5.93554 9.57989 6.25678C9.25875 6.57805 9.25875 7.0989 9.58 7.42003L10.7432 6.25675ZM4.09796 9.08163C4.4192 8.76039 4.4192 8.23964 4.09796 7.9184C3.77673 7.59716 3.25591 7.59716 2.93467 7.9184L4.09796 9.08163ZM6.25681 10.7432C6.57805 11.0645 7.0989 11.0645 7.42003 10.7432C7.74127 10.422 7.74127 9.90113 7.42003 9.57989L6.25681 10.7432ZM12.9021 7.9184C12.5808 8.23964 12.5808 8.76039 12.9021 9.08163C13.2233 9.40287 13.7441 9.40287 14.0653 9.08163L12.9021 7.9184ZM9.58 7.42003C10.0866 7.92663 10.3712 8.61375 10.3712 9.33026H12.0163C12.0163 8.17746 11.5584 7.07192 10.7432 6.25675L9.58 7.42003ZM10.3712 9.33026C10.3712 10.0467 10.0866 10.7338 9.58 11.2404L10.7432 12.4037C11.5584 11.5886 12.0163 10.4831 12.0163 9.33026H10.3712ZM9.58 11.2404L6.25681 14.5637L7.42003 15.7269L10.7432 12.4037L9.58 11.2404ZM6.25681 14.5637C5.2018 15.6187 3.49134 15.6187 2.43637 14.5637L1.27308 15.7269C2.97052 17.4244 5.72262 17.4244 7.42003 15.7269L6.25681 14.5637ZM2.43637 14.5637C1.3814 13.5087 1.3814 11.7982 2.43637 10.7432L1.27308 9.58C-0.424359 11.2773 -0.424359 14.0294 1.27308 15.7269L2.43637 14.5637ZM2.43637 10.7432L4.09796 9.08163L2.93467 7.9184L1.27308 9.58L2.43637 10.7432ZM7.42003 9.57989C6.91344 9.07329 6.62883 8.38617 6.62883 7.66977H4.98364C4.98364 8.82257 5.44161 9.92811 6.25681 10.7432L7.42003 9.57989ZM6.62883 7.66977C6.62883 6.95325 6.91344 6.26618 7.42003 5.75958L6.25681 4.59625C5.44161 5.41138 4.98364 6.51696 4.98364 7.66977H6.62883ZM7.42003 5.75958L10.7432 2.43637L9.58 1.27308L6.25681 4.59625L7.42003 5.75958ZM10.7432 2.43637C11.7982 1.3814 13.5087 1.3814 14.5637 2.43637L15.7269 1.27308C14.0294 -0.424359 11.2773 -0.424359 9.58 1.27308L10.7432 2.43637ZM14.5637 2.43637C15.6187 3.49134 15.6187 5.2018 14.5637 6.25676L15.7269 7.42003C17.4244 5.72262 17.4244 2.97052 15.7269 1.27308L14.5637 2.43637ZM14.5637 6.25676L12.9021 7.9184L14.0653 9.08163L15.7269 7.42003L14.5637 6.25676Z" fill="white"/>
</svg>
