<svg width="89" height="89" viewBox="0 0 89 89" fill="none" xmlns="http://www.w3.org/2000/svg">
<g filter="url(#filter0_d_47_2)">
<path d="M68.4461 65.784C64.9581 67.544 61.4221 67.832 57.8381 66.648C54.0301 65.432 50.7501 62.84 47.9981 58.872C46.5261 56.76 45.2621 54.312 44.2061 51.528L42.6701 47.448H31.3421L28.7981 53.496C28.6381 53.912 28.5581 54.248 28.5581 54.504C28.5581 54.76 28.6061 55.048 28.7021 55.368C28.8301 55.656 29.0701 55.928 29.4221 56.184C29.8061 56.408 30.2221 56.52 30.6701 56.52H31.0541V57H20.7821V56.52H21.2141C21.9501 56.52 22.6701 56.312 23.3741 55.896C24.1101 55.448 24.7181 54.792 25.1981 53.928L35.9021 29.496C34.6541 26.68 33.3261 24.744 31.9181 23.688C30.7341 22.792 29.5981 22.344 28.5101 22.344C27.4541 22.344 26.4621 22.504 25.5341 22.824L25.4381 22.344C27.7421 21.16 29.9501 20.568 32.0621 20.568C34.6861 20.568 37.0381 21.592 39.1181 23.64C41.1661 25.656 42.9741 28.568 44.5421 32.376L51.5021 49.56C54.1261 56.056 56.8141 60.52 59.5661 62.952C60.6861 63.944 61.8381 64.632 63.0221 65.016C64.2061 65.4 65.1981 65.592 65.9981 65.592C66.8301 65.592 67.6301 65.496 68.3981 65.304L68.4461 65.784ZM32.1581 45.384H41.9501L38.5901 36.504C38.4301 36.056 38.2061 35.448 37.9181 34.68C37.6301 33.88 37.4381 33.32 37.3421 33L32.1581 45.384Z" fill="#44ADF8"/>
</g>
<rect x="3.25" y="6.25" width="77.5" height="73.5" stroke="white" stroke-width="3.5"/>
<defs>
<filter id="filter0_d_47_2" x="0.682104" y="0.467993" width="87.864" height="88.056" filterUnits="userSpaceOnUse" color-interpolation-filters="sRGB">
<feFlood flood-opacity="0" result="BackgroundImageFix"/>
<feColorMatrix in="SourceAlpha" type="matrix" values="0 0 0 0 0 0 0 0 0 0 0 0 0 0 0 0 0 0 127 0" result="hardAlpha"/>
<feOffset/>
<feGaussianBlur stdDeviation="10.05"/>
<feComposite in2="hardAlpha" operator="out"/>
<feColorMatrix type="matrix" values="0 0 0 0 0.266667 0 0 0 0 0.678431 0 0 0 0 0.972549 0 0 0 0.35 0"/>
<feBlend mode="normal" in2="BackgroundImageFix" result="effect1_dropShadow_47_2"/>
<feBlend mode="normal" in="SourceGraphic" in2="effect1_dropShadow_47_2" result="shape"/>
</filter>
</defs>
</svg>
