<svg width="66" height="66" viewBox="0 0 60 60" fill="none" xmlns="http://www.w3.org/2000/svg">
<path d="M44.5294 56.2525C44.3063 56.3707 44.325 56.4082 44.5387 56.2994C44.6081 56.2713 44.6663 56.2319 44.7169 56.185C44.7169 56.1457 44.7169 56.1457 44.5294 56.2525ZM44.9794 56.0088C44.8725 56.0969 44.8725 56.0969 45 56.0388C45.0675 55.9994 45.1275 55.9619 45.1275 55.9507C45.1275 55.9 45.0975 55.9113 44.9794 56.0088ZM45.2719 55.8325C45.165 55.9207 45.165 55.9207 45.2925 55.8625C45.3619 55.8232 45.42 55.7819 45.42 55.7725C45.42 55.7257 45.39 55.735 45.2719 55.8325ZM45.5681 55.6582C45.4612 55.7463 45.4613 55.7463 45.585 55.6863C45.6544 55.6488 45.7125 55.6094 45.7125 55.5982C45.7125 55.5513 45.6825 55.5607 45.5681 55.6582ZM45.9675 55.3938C45.7631 55.5307 45.6919 55.6188 45.8794 55.5213C46.005 55.4444 46.2187 55.2757 46.1812 55.2757C46.1006 55.3057 46.0331 55.3563 45.9656 55.3938H45.9675ZM28.0369 0.0137813C27.9 0.0231563 27.4894 0.0606563 27.1294 0.0906563C18.6019 0.863156 10.6238 5.45316 5.56688 12.5238C2.77125 16.3994 0.95625 20.9013 0.271875 25.6282C0.03 27.2782 0 27.7657 0 30.0025C0 32.2375 0.03 32.7175 0.271875 34.3675C1.905 45.6382 9.9225 55.0994 20.79 58.6057C22.7456 59.23 24.795 59.6613 27.1294 59.9257C28.0369 60.0232 31.9613 60.0232 32.8688 59.9257C36.9038 59.4757 40.3106 58.48 43.6819 56.7607C44.1994 56.4982 44.2969 56.4288 44.2275 56.3707C42.5775 54.1938 40.9575 52.015 39.3356 49.8175L34.5413 43.3432L28.5356 34.4463C26.5331 31.4688 24.5231 28.4988 22.4812 25.5513C22.4606 25.5513 22.4344 29.5057 22.4231 34.3282C22.4025 42.775 22.4025 43.1182 22.2956 43.3132C22.1887 43.5475 22.0125 43.7425 21.7781 43.8513C21.5925 43.9394 21.4256 43.9582 20.5388 43.9582H19.5244L19.26 43.7932C19.095 43.6863 18.9581 43.5382 18.87 43.3638L18.7425 43.0994L18.7519 31.3413L18.7725 19.5832L18.9581 19.3488C19.0763 19.2044 19.2225 19.0863 19.3875 18.9982C19.6331 18.88 19.7306 18.8613 20.745 18.8613C21.9356 18.8613 22.1325 18.9082 22.4456 19.2513C24.8756 22.8738 27.2981 26.5057 29.6812 30.1488C33.5794 36.0588 38.9006 44.1232 41.5163 48.0794L46.2731 55.2775L46.5075 55.1219C48.7931 53.5975 50.8725 51.7825 52.6669 49.7125C56.4469 45.385 58.8994 40.0619 59.73 34.3807C59.9719 32.7307 60.0019 32.2413 60.0019 30.0063C60.0019 27.7694 59.9719 27.2913 59.73 25.6413C58.0969 14.3707 50.0794 4.90941 39.2119 1.40128C37.1794 0.758156 35.0887 0.319406 32.9719 0.0944063C32.4037 0.0362813 28.5263 -0.0330937 28.0388 0.0175313L28.0369 0.0137813ZM40.3125 18.1582C40.5956 18.2932 40.8094 18.5482 40.9069 18.8407C40.9575 18.9982 40.9669 22.2588 40.9575 29.6032L40.9369 40.1482L39.0825 37.2982L37.2169 34.4463V26.7907C37.2169 21.8275 37.2375 19.045 37.2638 18.9082C37.3519 18.595 37.5656 18.3325 37.8506 18.1675C38.0831 18.0494 38.1731 18.04 39.1013 18.04C39.9694 18.04 40.1175 18.0494 40.3125 18.1582Z" fill="white"/>
</svg>
