<svg width="64" height="64" viewBox="0 0 64 64" fill="none" xmlns="http://www.w3.org/2000/svg">
<path fill-rule="evenodd" clip-rule="evenodd" d="M40.7808 59.0656C39.2384 59.0656 37.9904 57.8114 37.9904 56.2609C37.9904 54.7105 39.2384 53.4594 40.7808 53.4594C42.3232 53.4594 43.5712 54.7105 43.5712 56.2609C43.5712 57.8114 42.3232 59.0656 40.7808 59.0656ZM32.2304 64C48.48 64 47.4656 56.9172 47.4656 56.9172L47.4464 49.5797H31.9424V47.3766H53.6032C53.6032 47.3766 64 48.5636 64 32.0844C64 15.6051 54.928 16.1859 54.928 16.1859H49.5104V23.8359C49.5104 23.8359 49.8016 32.9547 40.5824 32.9547H25.2032C25.2032 32.9547 16.5632 32.8176 16.5632 41.3516V55.4594C16.5632 55.4594 15.2512 64 32.2304 64ZM23.2224 4.93438C24.7648 4.93438 26.0096 6.1886 26.0096 7.73906C26.0096 9.28953 24.7648 10.5406 23.2224 10.5406C21.68 10.5406 20.432 9.28953 20.432 7.73906C20.432 6.1886 21.68 4.93438 23.2224 4.93438ZM31.7696 0C15.5232 0 16.5376 7.08281 16.5376 7.08281L16.5568 14.4203H32.0608V16.6234H10.3968C10.3968 16.6234 0 15.4364 0 31.9156C0 48.3949 9.0752 47.8141 9.0752 47.8141H14.4896V40.1641C14.4896 40.1641 14.1984 31.0453 23.4208 31.0453H38.7968C38.7968 31.0453 47.4368 31.1824 47.4368 22.6484V8.54063C47.4368 8.54063 48.7488 0 31.7696 0Z" fill="white"/>
</svg>
