<svg width="66" height="59" viewBox="0 0 66 59" fill="none" xmlns="http://www.w3.org/2000/svg">
<path d="M40.6334 42.5884C38.9637 44.9585 37.1441 47.2198 35.1859 49.3585C40.3995 54.4104 45.2514 56.776 47.9393 55.2228C50.6335 53.6727 51.0045 48.2971 49.2303 41.2655C46.5704 41.8569 43.6799 42.3051 40.6334 42.5884ZM36.5485 42.8592C34.1839 42.9569 31.8161 42.9569 29.4515 42.8592C30.627 44.3906 31.8151 45.81 33 47.1049C34.1849 45.81 35.3698 44.3906 36.5485 42.8592ZM52.2643 18.2877C60.5743 20.6658 66 24.6189 66 29.3906C66 34.1624 60.5743 38.1155 52.2643 40.4936C54.3535 48.8667 53.6394 55.534 49.5016 57.9184C45.3606 60.3058 39.2177 57.5915 33 51.5996C26.7823 57.5915 20.6394 60.3058 16.4984 57.9184C12.3606 55.534 11.6434 48.8667 13.7357 40.4936C5.42568 38.1155 0 34.1624 0 29.3906C0 24.6189 5.42568 20.6658 13.7357 18.2877C11.6465 9.91457 12.3606 3.24721 16.4984 0.862899C20.6394 -1.52453 26.7823 1.18973 33 7.18164C39.2177 1.18973 45.3606 -1.52453 49.5016 0.862899C53.6394 3.24721 54.3566 9.91457 52.2643 18.2877ZM49.2303 17.5157C51.0077 10.4811 50.6335 5.1086 47.9425 3.55848C45.2514 2.00525 40.3995 4.37089 35.189 9.42277C37.0318 11.4242 38.8654 13.6996 40.6334 16.1929C43.683 16.473 46.5704 16.9212 49.2303 17.5157ZM16.7697 41.2655C14.9923 48.3002 15.3665 53.6727 18.0575 55.2228C20.7486 56.776 25.6005 54.4104 30.811 49.3585C28.8538 47.2197 27.0353 44.9584 25.3666 42.5884C22.4757 42.3304 19.6042 41.8886 16.7697 41.2655ZM29.4515 15.9221C31.8161 15.8243 34.1839 15.8243 36.5485 15.9221C35.4275 14.4574 34.2436 13.0419 33 11.6795C31.8151 12.9743 30.6302 14.3906 29.4515 15.9221ZM25.3666 16.1929C27.0373 13.8227 28.8579 11.5614 30.8173 9.42277C25.6005 4.37089 20.7454 2.00525 18.0607 3.55848C15.3665 5.1086 14.9955 10.4842 16.7697 17.5157C19.4296 16.9243 22.3201 16.4761 25.3666 16.1929ZM38.9059 39.6002C41.1256 36.3486 43.0986 32.9359 44.8087 29.3906C43.0986 25.8454 41.1256 22.4327 38.9059 19.181C34.9741 18.8872 31.0259 18.8872 27.0941 19.181C24.8744 22.4327 22.9014 25.8454 21.1913 29.3906C22.9014 32.9359 24.8744 36.3486 27.0941 39.6002C31.0259 39.8941 34.9741 39.8941 38.9059 39.6002ZM42.9097 39.1925C44.8274 38.9434 46.6515 38.6228 48.3665 38.2462C47.8057 36.4899 47.169 34.7587 46.4582 33.0574C45.3606 35.1493 44.1767 37.1951 42.9097 39.1893V39.1925ZM23.0903 19.5857C21.1726 19.8347 19.3485 20.1553 17.6335 20.5319C18.1636 22.2003 18.7997 23.9372 19.5418 25.7208C20.6394 23.6288 21.8233 21.58 23.0903 19.5857ZM17.6335 38.2431C19.3485 38.6197 21.1726 38.9372 23.0903 39.1893C21.8233 37.1951 20.6394 35.1493 19.5418 33.0574C18.7997 34.8378 18.1636 36.5747 17.6335 38.2431ZM14.5839 37.4805C15.3977 34.8845 16.4548 32.164 17.7333 29.3875C16.4548 26.611 15.3977 23.8905 14.5839 21.2945C7.59284 23.2773 3.11821 26.2873 3.11821 29.3875C3.11821 32.4877 7.59284 35.4977 14.5839 37.4805ZM48.3665 20.5319C46.6515 20.1553 44.8274 19.8378 42.9097 19.5857C44.1767 21.58 45.3606 23.6257 46.4582 25.7177C47.2003 23.9372 47.8364 22.2003 48.3665 20.5319ZM51.4161 21.2945C50.6023 23.8905 49.5452 26.611 48.2667 29.3875C49.5452 32.164 50.6023 34.8845 51.4161 37.4805C58.4072 35.4977 62.8818 32.4877 62.8818 29.3875C62.8818 26.2873 58.4072 23.2773 51.4161 21.2945ZM33 35.2425C32.2302 35.2425 31.4679 35.0911 30.7566 34.797C30.0454 34.5029 29.3991 34.0719 28.8548 33.5285C28.3104 32.9851 27.8786 32.34 27.584 31.63C27.2894 30.9201 27.1378 30.1591 27.1378 29.3906C27.1378 28.6221 27.2894 27.8612 27.584 27.1512C27.8786 26.4412 28.3104 25.7961 28.8548 25.2527C29.3991 24.7094 30.0454 24.2783 30.7566 23.9842C31.4679 23.6901 32.2302 23.5388 33 23.5388C34.5548 23.5388 36.0458 24.1553 37.1452 25.2527C38.2446 26.3502 38.8622 27.8386 38.8622 29.3906C38.8622 30.9426 38.2446 32.4311 37.1452 33.5285C36.0458 34.6259 34.5548 35.2425 33 35.2425Z" fill="white"/>
</svg>
