<svg width="24" height="17" viewBox="0 0 23 16" fill="none" xmlns="http://www.w3.org/2000/svg">
<path d="M21.7246 7.72839H9.23153M1 3.1481H3.91667M2.16667 7.72839H3.91667M2.75 12.3087H3.91667M9.12178 8.28903L8.08169 11.6773C7.68794 12.96 7.49105 13.6014 7.65856 13.9843C7.80399 14.3168 8.10099 14.5624 8.45956 14.6464C8.87257 14.7433 9.48295 14.4437 10.7037 13.8446L19.8274 9.36712C20.9022 8.83969 21.4396 8.57598 21.6121 8.21906C21.7621 7.90852 21.7621 7.54827 21.6121 7.23773C21.4396 6.8808 20.9022 6.61709 19.8274 6.08967L10.6913 1.60613C9.47385 1.00869 8.86515 0.709975 8.45254 0.806402C8.09427 0.890142 7.79731 1.13499 7.65149 1.46691C7.48353 1.84919 7.67832 2.4892 8.06789 3.76923L9.12305 7.23612C9.18265 7.43193 9.2124 7.52984 9.22418 7.62957C9.23468 7.71809 9.23457 7.8074 9.22383 7.89592C9.21182 7.99566 9.18183 8.09345 9.12178 8.28903Z" stroke="white" stroke-width="1.8" stroke-linecap="round" stroke-linejoin="round"/>
</svg>
