<svg width="68" height="41" viewBox="0 0 68 41" fill="none" xmlns="http://www.w3.org/2000/svg">
<path d="M34 0C24.9333 0 19.2667 4.53333 17 13.6C20.4 9.06667 24.3667 7.36667 28.9 8.5C31.4868 9.146 33.3342 11.0217 35.3827 13.1013C38.7175 16.4843 42.5737 20.4 51 20.4C60.0667 20.4 65.7333 15.8667 68 6.8C64.6 11.3333 60.6333 13.0333 56.1 11.9C53.5132 11.254 51.6658 9.37833 49.6173 7.29867C46.2853 3.91567 42.4292 0 34 0ZM17 20.4C7.93333 20.4 2.26667 24.9333 0 34C3.4 29.4667 7.36667 27.7667 11.9 28.9C14.4868 29.546 16.3342 31.4217 18.3827 33.5013C21.7175 36.8843 25.5737 40.8 34 40.8C43.0667 40.8 48.7333 36.2667 51 27.2C47.6 31.7333 43.6333 33.4333 39.1 32.3C36.5132 31.654 34.6658 29.7783 32.6173 27.6987C29.2853 24.3157 25.4292 20.4 17 20.4Z" fill="white"/>
</svg>
