<svg width="57" height="57" viewBox="0 0 57 57" fill="none" xmlns="http://www.w3.org/2000/svg">
<path d="M42.6595 2.33098C42.6595 0.545592 40.6605 0.545572 39.7721 0.768746C41.0158 -0.213222 42.4745 0.0248609 42.9926 0.322419L55.0042 6.21205C56.1486 6.77324 56.8746 7.94091 56.8746 9.22053V47.9657C56.8746 49.2624 56.1293 50.4426 54.9616 50.9947L43.6591 56.3391C42.8815 56.6736 41.1936 57.4995 39.7721 56.3389C41.549 56.6738 42.5114 55.4092 42.6595 54.5536V2.33098Z" fill="white"/>
<path d="M39.9165 0.736672C40.8594 0.550345 42.6595 0.636633 42.6595 2.33098L42.6599 15.6677L6.24323 43.217C5.6067 43.6986 4.71088 43.6186 4.16871 43.032L0.415456 38.9707C-0.172526 38.3345 -0.131386 37.3386 0.507049 36.7536L39.7721 0.768746L39.9165 0.736672Z" fill="white"/>
<path d="M42.6599 41.4407L6.24323 13.8913C5.6067 13.4097 4.71088 13.4896 4.16871 14.0763L0.415456 18.1376C-0.172526 18.7738 -0.131386 19.7697 0.507049 20.3549L39.7721 56.3389C41.549 56.6738 42.5114 55.4092 42.6595 54.5536L42.6599 41.4407Z" fill="white"/>
</svg>
