<svg width="65" height="65" viewBox="0 0 65 65" fill="none" xmlns="http://www.w3.org/2000/svg">
<path d="M65 32.5C65 14.56 50.44 0 32.5 0C14.56 0 0 14.56 0 32.5C0 50.44 14.56 65 32.5 65C50.44 65 65 50.44 65 32.5ZM32.5 3.2825C48.6525 3.2825 61.7175 16.3475 61.7175 32.5C61.7175 48.6525 48.6525 61.7175 32.5 61.7175C16.3475 61.7175 3.2825 48.6525 3.2825 32.5C3.2825 16.3475 16.3475 3.2825 32.5 3.2825ZM26.0325 48.165L16.12 21.4825C17.7125 21.385 19.5325 21.2225 19.5325 21.2225C20.93 21.06 20.7675 17.94 19.3375 18.005C19.3375 18.005 15.145 18.33 12.415 18.33C11.9275 18.33 11.3425 18.33 10.725 18.2975C15.405 11.245 23.4 6.5975 32.5 6.5975C39.2925 6.5975 45.4675 9.165 50.0825 13.39C48.1325 13.13 45.37 14.5275 45.37 18.005C45.37 20.15 46.605 21.97 47.9375 24.115C48.945 25.87 49.5625 28.08 49.5625 31.2975C49.5625 35.6525 45.435 45.8575 45.435 45.8575L36.6275 21.4825C38.1875 21.385 39.065 20.9625 39.065 20.9625C40.4625 20.8 40.3 17.3875 38.9025 17.4525C38.9025 17.4525 34.6775 17.81 31.9475 17.81C29.4125 17.81 25.09 17.4525 25.09 17.4525C23.6925 17.3875 23.53 20.8975 24.9275 20.9625L27.6575 21.2225L31.2975 31.1025L26.0325 48.165ZM45.5975 55.1525L54.08 32.5C54.08 32.5 56.2575 27.0075 55.3475 20.1175C57.395 23.8225 58.4025 27.9825 58.4025 32.5C58.4025 42.12 53.3325 50.635 45.5975 55.1525ZM8.71 22.0025L21.125 56.0625C12.4475 51.8375 6.5975 42.8025 6.5975 32.5C6.5975 28.73 7.2475 25.2525 8.71 22.0025ZM32.9225 36.725L40.365 57.0375C37.9275 57.915 35.2625 58.4025 32.5 58.4025C30.16 58.4025 27.9175 58.045 25.805 57.4275L32.9225 36.725Z" fill="white"/>
</svg>
