<svg width="120" height="10" viewBox="0 0 120 10" fill="none" xmlns="http://www.w3.org/2000/svg">
<path d="M1 0.999999C5.21931 0.999999 5.21931 9 9.43862 9C13.6579 9 13.6579 0.999999 17.8772 0.999999C22.0965 0.999999 22.0965 9 26.3159 9C30.5352 9 30.5352 0.999999 34.7545 0.999999C38.9738 1 38.9738 9 43.0524 9C47.2718 9 47.2718 1 51.4911 1C55.7104 1 55.7104 9 59.9297 9C64.149 9 64.149 1 68.3683 1C72.5876 1 72.5876 9 76.8069 9C81.0262 9 81.0262 1 85.2455 1C89.4648 1 89.4648 9 93.6841 9C97.9035 9 97.9035 1 102.123 1C106.342 1 106.342 9 110.561 9C114.781 9 114.781 1 119 1" stroke="white" stroke-miterlimit="10" stroke-linecap="round" stroke-linejoin="round"/>
</svg>
